<?xml version="1.0" encoding="UTF-8"?>
<svg version="1.1" xmlns="http://www.w3.org/2000/svg" width="20" height="20">
<path d="M0 0 C4.68855786 1.36749604 7.60765755 3.57571791 10 7.875 C10.59204942 12.38086284 10.33019595 16.29942755 10 20.875 C3.4 20.875 -3.2 20.875 -10 20.875 C-10.83044571 9.36739519 -10.83044571 9.36739519 -8.65234375 5.453125 C-5.95483367 2.58368571 -3.79155482 1.10587016 0 0 Z M-4.625 5.8125 C-6.81066421 8.02079013 -7.88729507 9.26620073 -8.45703125 12.34375 C-8.43949259 14.56063657 -8.31336758 16.68142691 -8 18.875 C-7.01 18.875 -6.02 18.875 -5 18.875 C-4.62875 17.4209375 -4.62875 17.4209375 -4.25 15.9375 C-3 12.875 -3 12.875 -1.0625 11.8125 C1 11.875 1 11.875 2.6875 13.0625 C4.10185661 15.01565912 4.59316505 16.51535727 5 18.875 C5.99 18.875 6.98 18.875 8 18.875 C8.59370899 14.71903704 8.97445954 11.28681539 6.51171875 7.71875 C4.74688176 5.93564347 3.05219223 4.31896331 1 2.875 C-1.77942769 2.875 -2.58713756 3.96332852 -4.625 5.8125 Z M-1 13.875 C-1.33 15.525 -1.66 17.175 -2 18.875 C-0.68 18.875 0.64 18.875 2 18.875 C1.67 17.225 1.34 15.575 1 13.875 C0.34 13.875 -0.32 13.875 -1 13.875 Z " fill="#ffffffff" transform="translate(10,-0.875)"/>
</svg>
